<?xml version="1.0" encoding="utf-8"?>
<!-- Generator: Adobe Illustrator 18.0.0, SVG Export Plug-In . SVG Version: 6.00 Build 0)  -->
<!DOCTYPE svg PUBLIC "-//W3C//DTD SVG 1.0//EN" "http://www.w3.org/TR/2001/REC-SVG-20010904/DTD/svg10.dtd">
<svg version="1.0" id="Layer_1" xmlns="http://www.w3.org/2000/svg" xmlns:xlink="http://www.w3.org/1999/xlink" x="0px" y="0px"
	 viewBox="0 0 88 92" enable-background="new 0 0 88 92" xml:space="preserve">
<circle fill="none" stroke="#5CC0DE" stroke-miterlimit="10" cx="43.8" cy="34.6" r="3.6"/>
<path fill="#5CC0DE" d="M47.9,63.6c0,1.7-1.6,1-3.7,1l-0.4-11l-0.4,11c-2,0-3.7,0.7-3.7-1v-9.5l-2-1.9v-9.4c0-1.7,1.6-3,3.7-3h4.9
	c2,0,3.7,1.3,3.7,3v9.4l-2,1.9V63.6z"/>
<g>
	<g>
		<path fill="#1C1F24" d="M30.3,46c0-8.6,2.7-16.4,7.2-22.3c0.2-0.2,0.3-0.5,0.3-0.8v0c0-1.2-1.6-1.8-2.3-0.8
			c-4.7,6.3-7.5,14.6-7.5,23.8c0,9.2,2.8,17.5,7.5,23.8c0.7,1,2.3,0.5,2.3-0.8l0,0c0-0.3-0.1-0.5-0.3-0.8C33,62.4,30.3,54.6,30.3,46
			z"/>
		<path fill="#1C1F24" d="M50.3,69.1L50.3,69.1c0,1.2,1.6,1.8,2.3,0.8c4.6-6.3,7.5-14.6,7.5-23.8c0-9.2-2.8-17.5-7.5-23.8
			c-0.7-1-2.3-0.5-2.3,0.8v0c0,0.3,0.1,0.5,0.3,0.8c4.4,5.8,7.2,13.7,7.2,22.3c0,8.6-2.7,16.4-7.2,22.3
			C50.4,68.5,50.3,68.8,50.3,69.1z"/>
	</g>
</g>
<path fill="#1C1F24" d="M44,10.6C24.4,10.6,8.5,26.5,8.5,46c0,19.5,15.9,35.4,35.5,35.4c19.6,0,35.5-15.8,35.5-35.4
	C79.5,26.5,63.6,10.6,44,10.6z M44,75.1c-16.1,0-29.2-13-29.2-29.1c0-16.1,13.1-29.1,29.2-29.1c16.1,0,29.2,13,29.2,29.1
	C73.2,62.1,60.1,75.1,44,75.1z"/>
<path fill="#1C1F24" d="M15.3,47.4h16.3c0.8,0,1.4-0.6,1.4-1.4v0c0-0.8-0.6-1.4-1.4-1.4H15.3c-0.8,0-1.4,0.6-1.4,1.4v0
	C13.9,46.8,14.5,47.4,15.3,47.4z"/>
<path fill="#1C1F24" d="M56.5,47.4h16.3c0.8,0,1.4-0.6,1.4-1.4v0c0-0.8-0.6-1.4-1.4-1.4H56.5c-0.8,0-1.4,0.6-1.4,1.4v0
	C55.1,46.8,55.7,47.4,56.5,47.4z"/>
<path fill="#1C1F24" d="M42.4,20.2v1.3c0,0.8,0.6,1.4,1.4,1.4l0,0c0.8,0,1.4-0.6,1.4-1.4v-1.3c0-0.8-0.6-1.4-1.4-1.4l0,0
	C43,18.8,42.4,19.5,42.4,20.2z"/>
<path fill="#1C1F24" d="M21.1,31c4.2,3.3,9.2,5.7,14.8,7.1c0.8,0.2,1.6-0.4,1.6-1.3l0,0c0-0.6-0.4-1.1-1-1.3
	c-5.1-1.3-9.8-3.5-13.6-6.6c-0.2-0.2-0.5-0.3-0.8-0.3h-0.2C20.7,28.7,20.1,30.3,21.1,31z"/>
<path fill="#1C1F24" d="M64.9,29c-3.8,3-8.3,5.3-13.4,6.5c-0.6,0.1-1,0.7-1,1.2l0,0c0,0.8,0.8,1.4,1.6,1.2c5.5-1.3,10.4-3.8,14.5-7
	c1-0.8,0.4-2.3-0.8-2.3h-0.1C65.4,28.7,65.2,28.8,64.9,29z"/>
<path fill="#1C1F24" d="M22.1,63.3h0.1c0.3,0,0.6-0.1,0.8-0.3c3.7-3.1,8.3-5.4,13.3-6.6c0.6-0.1,1-0.7,1-1.3v0
	c0-0.9-0.8-1.5-1.6-1.3c-5.5,1.4-10.4,3.8-14.4,7.1C20.4,61.7,20.9,63.3,22.1,63.3z"/>
<path fill="#1C1F24" d="M50.6,54.9L50.6,54.9c0,0.6,0.4,1.1,1,1.3c5.1,1.3,9.7,3.6,13.5,6.8c0.2,0.2,0.5,0.3,0.8,0.3h0.1
	c1.3,0,1.8-1.6,0.8-2.4c-4.1-3.4-9.1-5.9-14.7-7.3C51.4,53.4,50.6,54,50.6,54.9z"/>
</svg>
